<svg width="64" height="64" viewBox="0 0 64 64" fill="none" xmlns="http://www.w3.org/2000/svg">
  <!-- Фоновый круг -->
  <circle cx="32" cy="32" r="30" fill="#ffc107" fill-opacity="0.1"/>
  <circle cx="32" cy="32" r="28" stroke="#ffc107" stroke-width="2"/>
  
  <!-- Щит -->
  <path d="M20 16L32 12L44 16V28C44 36 38 44 32 46C26 44 20 36 20 28V16Z" stroke="#ffc107" stroke-width="2.5" fill="none" stroke-linejoin="round"/>
  
  <!-- Шестеренка внутри -->
  <circle cx="32" cy="28" r="6" stroke="#ffc107" stroke-width="2.5" fill="none"/>
  <path d="M32 19L32 22M32 34L32 37M23 28L26 28M38 28L41 28M25.5 22L27.5 24M36.5 32L38.5 34M25.5 34L27.5 32M36.5 24L38.5 22" stroke="#ffc107" stroke-width="2" stroke-linecap="round"/>
  
  <!-- Звезда -->
  <path d="M52 12L54 16L58 16L55 19L56 23L52 21L48 23L49 19L46 16L50 16L52 12Z" fill="#ffc107"/>
</svg>